<svg xmlns="http://www.w3.org/2000/svg" viewBox="0 0 400 200">
  <!-- Background gradient: white at top, rgb(255, 0, 0) red at bottom -->
  <defs>
    <linearGradient id="bgGradient" x1="0%" y1="0%" x2="0%" y2="100%">
      <stop offset="0%" style="stop-color:#ffffff" />
      <stop offset="33%" style="stop-color:#ffffff" />
      <stop offset="100%" style="stop-color:rgb(255, 0, 0)" />
    </linearGradient>
    <!-- More visible vignette effect -->
    <radialGradient id="vignetteGradient" cx="50%" cy="50%" r="100%" fx="50%" fy="50%">
      <stop offset="0%" style="stop-color:rgba(0, 0, 0, 0)" />
      <stop offset="70%" style="stop-color:rgba(0, 0, 0, 0.05)" /> <!-- Increased opacity -->
    </radialGradient>
  </defs>
  
  <rect width="100%" height="100%" fill="url(#bgGradient)"/>

  <!-- Fully red wave at the bottom -->
  <path d="M 0 150 Q 100 120, 200 150 T 400 150 V 200 H 0 Z" fill="rgba(255, 0, 0, 1)"/>

  <!-- Dark red transparent wave -->
  <path d="M 0 140 Q 100 110, 200 140 T 400 140 V 200 H 0 Z" fill="rgba(255, 0, 0, 0.8)"/>

  <!-- Lighter red transparent wave -->
  <path d="M 0 130 Q 100 100, 200 130 T 400 130 V 200 H 0 Z" fill="rgba(255, 0, 0, 0.6)"/>

  <!-- Even lighter red transparent wave -->
  <path d="M 0 120 Q 100 90, 200 120 T 400 120 V 200 H 0 Z" fill="rgba(255, 0, 0, 0.4)"/>

  <!-- Lightest red transparent wave -->
  <path d="M 0 110 Q 100 80, 200 110 T 400 110 V 200 H 0 Z" fill="rgba(255, 0, 0, 0.2)"/>

  <!-- Vignette overlay (only around the edges) -->
  <rect width="100%" height="100%" fill="url(#vignetteGradient)" />
</svg>
