<svg viewBox="0 0 1440 600" xmlns="http://www.w3.org/2000/svg">
  <style>
    .wave1 {
      animation: wavePeakMove1 7s linear infinite;
      fill: #ff0000;
      fill-opacity: 0.3;
    }

    .wave2 {
      animation: wavePeakMove2 7s linear infinite;
      fill: #ff0000;
      fill-opacity: 0.6; /* Same as wave1 */
    }

    .wave3 {
      animation: wavePeakMove3 7s linear infinite;
      fill: #ff0000;
      fill-opacity: 0.3;
    }

    .wave4 {
      animation: wavePeakMove4 7s linear infinite;
      fill: #ff0000;
      fill-opacity: 0.6;
    }

    /* First Wave Peak Movement - leftward */
    @keyframes wavePeakMove1 {
      0% {
        d: path("M 0,600 L 0,410 C 150,400 300,460 450,440 C 600,420 750,460 900,440 C 1050,420 1200,400 1440,420 L 1440,600 L 0,600 Z");
      }
      50% {
        d: path("M 0,600 L 0,420 C 100,400 250,460 400,440 C 550,420 700,460 850,440 C 1000,420 1150,400 1400,420 L 1440,600 L 0,600 Z");
      }
      100% {
        d: path("M 0,600 L 0,410 C 150,400 300,460 450,440 C 600,420 750,460 900,440 C 1050,420 1200,400 1440,420 L 1440,600 L 0,600 Z");
      }
    }

    /* Second Wave Peak Movement - rightward */
    @keyframes wavePeakMove2 {
      0% {
        d: path("M 0,600 L 0,440 C 150,400 300,480 450,460 C 600,440 750,480 900,460 C 1050,440 1200,420 1440,440 L 1440,600 L 0,600 Z");
      }
      50% {
        d: path("M 0,600 L 0,430 C 200,400 350,480 500,460 C 650,440 800,480 950,460 C 1100,440 1250,420 1440,440 L 1440,600 L 0,600 Z");
      }
      100% {
        d: path("M 0,600 L 0,440 C 150,400 300,480 450,460 C 600,440 750,480 900,460 C 1050,440 1200,420 1440,440 L 1440,600 L 0,600 Z");
      }
    }

    /* Third Wave Peak Movement - flipped version of wave1 */
    @keyframes wavePeakMove3 {
      0% {
        d: path("M 0,0 L 0,60 C 150,80 300,40 450,60 C 600,80 750,40 900,60 C 1050,80 1200,80 1440,60 L 1440,0 L 0,0 Z");
      }
      50% {
        d: path("M 0,0 L 0,60 C 100,80 250,40 400,60 C 550,80 700,40 850,60 C 1000,80 1150,80 1400,60 L 1440,0 L 0,0 Z");
      }
      100% {
        d: path("M 0,0 L 0,60 C 150,80 300,40 450,60 C 600,80 750,40 900,60 C 1050,80 1200,80 1440,60 L 1440,0 L 0,0 Z");
      }
    }

    /* Fourth Wave Peak Movement - flipped version of wave2 */
    @keyframes wavePeakMove4 {
      0% {
        d: path("M 0,0 L 0,50 C 150,70 300,30 450,50 C 600,70 750,30 900,50 C 1050,70 1200,90 1440,50 L 1440,0 L 0,0 Z");
      }
      50% {
        d: path("M 0,0 L 0,50 C 200,70 350,30 500,50 C 650,70 800,30 950,50 C 1100,70 1250,90 1440,50 L 1440,0 L 0,0 Z");
      }
      100% {
        d: path("M 0,0 L 0,50 C 150,70 300,30 450,50 C 600,70 750,30 900,50 C 1050,70 1200,90 1440,50 L 1440,0 L 0,0 Z");
      }
    }
  </style>

  <!-- First Wave (Lower on screen) -->
  <path d="M 0,600 L 0,400 C 150,400 300,460 450,440 C 600,420 750,460 900,440 C 1050,420 1200,400 1440,420 L 1440,600 L 0,600 Z" class="wave1"></path>

  <!-- Second Wave (Lower on screen) -->
  <path d="M 0,600 L 0,420 C 150,400 300,480 450,460 C 600,440 750,480 900,460 C 1050,440 1200,420 1440,440 L 1440,600 L 0,600 Z" class="wave2"></path>

  <!-- Third Wave (Higher on screen, flipped version of wave1) -->
  <path d="M 0,0 L 0,60 C 150,80 300,40 450,60 C 600,80 750,40 900,60 C 1050,80 1200,80 1440,60 L 1440,0 L 0,0 Z" class="wave3"></path>

  <!-- Fourth Wave (Higher on screen, flipped version of wave2) -->
  <path d="M 0,0 L 0,50 C 150,70 300,30 450,50 C 600,70 750,30 900,50 C 1050,70 1200,90 1440,50 L 1440,0 L 0,0 Z" class="wave4"></path>
</svg>











