<?xml version="1.0" ?><svg style="enable-background:new 0 0 48 48;" version="1.1" viewBox="0 0 48 48" xml:space="preserve" xmlns="http://www.w3.org/2000/svg" xmlns:xlink="http://www.w3.org/1999/xlink"><g id="Icons"><circle cx="24" cy="24" r="15.34377" style="fill:#F4F4F4;"/><circle cx="24" cy="24" r="15.34377" style="fill:none;stroke:#303030;stroke-width:0.7;stroke-linecap:round;stroke-linejoin:round;stroke-miterlimit:10;"/><g><linearGradient gradientUnits="userSpaceOnUse" id="SVGID_1_" x1="24" x2="24" y1="27.18151" y2="14.73265"><stop offset="0.09694" style="stop-color:#FFD879"/><stop offset="0.15387" style="stop-color:#FCCB76"/><stop offset="0.25828" style="stop-color:#F5AA6C"/><stop offset="0.39756" style="stop-color:#E9755E"/><stop offset="0.44898" style="stop-color:#E45F58"/><stop offset="0.67857" style="stop-color:#D22A9C"/><stop offset="1" style="stop-color:#6968DF"/></linearGradient><ellipse cx="24" cy="21.06503" rx="4.28224" ry="4.39593" style="fill:url(#SVGID_1_);"/><linearGradient gradientUnits="userSpaceOnUse" id="SVGID_2_" x1="24" x2="24" y1="33.43152" y2="23.38585"><stop offset="0.09694" style="stop-color:#FFD879"/><stop offset="0.15387" style="stop-color:#FCCB76"/><stop offset="0.25828" style="stop-color:#F5AA6C"/><stop offset="0.39756" style="stop-color:#E9755E"/><stop offset="0.44898" style="stop-color:#E45F58"/><stop offset="0.67857" style="stop-color:#D22A9C"/><stop offset="1" style="stop-color:#6968DF"/></linearGradient><path d="M31.66003,31.3309c0-2.35405-2.19146-4.2801-4.48463-4.2801h-6.3508    c-2.29317,0-4.48463,1.92604-4.48463,4.2801v0.4665h15.32006V31.3309z" style="fill:url(#SVGID_2_);"/></g><path d="   M21.45114,11.57075c0.53679-0.09549,1.07644-0.1576,1.61342-0.18429" style="fill:none;stroke:#303030;stroke-width:0.7;stroke-linecap:round;stroke-linejoin:round;stroke-miterlimit:10;"/><path d="   M15.02626,14.75953c1.44125-1.2413,3.22635-2.35482,5.10565-2.8855" style="fill:none;stroke:#303030;stroke-width:0.7;stroke-linecap:round;stroke-linejoin:round;stroke-miterlimit:10;"/><circle cx="24" cy="21.01823" r="4.46602" style="fill:none;stroke:#303030;stroke-width:0.7;stroke-linecap:round;stroke-linejoin:round;stroke-miterlimit:10;"/><path d="   M16.33997,31.44779c0-2.39159,1.95675-4.34834,4.34834-4.34834h6.62337c2.39159,0,4.34834,1.95675,4.34834,4.34834" style="fill:none;stroke:#303030;stroke-width:0.7;stroke-linecap:round;stroke-linejoin:round;stroke-miterlimit:10;"/></g></svg>